<?xml version="1.0" encoding="UTF-8"?>
<svg version="1.1" xmlns="http://www.w3.org/2000/svg" width="92" height="78">
<path d="M0 0 C0.66 0.99 1.32 1.98 2 3 C2.33 2.01 2.66 1.02 3 0 C4.77049689 -0.05410687 6.54146849 -0.09284119 8.3125 -0.125 C9.29863281 -0.14820312 10.28476562 -0.17140625 11.30078125 -0.1953125 C14 0 14 0 17 2 C17.33 1.34 17.66 0.68 18 0 C21.96 0 25.92 0 30 0 C31.38013585 2.48847251 32.72809945 4.98713887 34.0625 7.5 C34.45244141 8.19609375 34.84238281 8.8921875 35.24414062 9.609375 C38.03471875 14.94357743 38.37276233 18.11673289 37 24 C36.02734375 26.53125 36.02734375 26.53125 34.9375 28.5 C34.57527344 29.1703125 34.21304688 29.840625 33.83984375 30.53125 C33.56269531 31.0159375 33.28554687 31.500625 33 32 C30.671875 31.87109375 30.671875 31.87109375 28 31 C26.453125 28.34765625 26.453125 28.34765625 25.25 25.0625 C24.84265625 23.98097656 24.4353125 22.89945313 24.015625 21.78515625 C23.68046875 20.86605469 23.3453125 19.94695313 23 19 C22.505 18.01 22.505 18.01 22 17 C21.90203125 17.61488281 21.8040625 18.22976562 21.703125 18.86328125 C20.48879837 25.42692605 20.48879837 25.42692605 18.1875 28.125 C16 29 16 29 13.4375 29.1875 C10.47629794 27.7448631 10.31484724 26.93666906 9.1875 23.9375 C8.795625 22.638125 8.40375 21.33875 8 20 C5.69 23.3 3.38 26.6 1 30 C-3.72947248 27.63526376 -4.29518149 25.64412295 -6 21 C-6.60560998 19.49379903 -7.21379174 17.98863019 -7.82421875 16.484375 C-8.44661536 14.90676338 -9.06769327 13.32863092 -9.6875 11.75 C-10.16799805 10.54730469 -10.16799805 10.54730469 -10.65820312 9.3203125 C-11.11163086 8.16402344 -11.11163086 8.16402344 -11.57421875 6.984375 C-11.98546997 5.94361816 -11.98546997 5.94361816 -12.4050293 4.88183594 C-13 3 -13 3 -13 0 C-8.38311132 -1.01346337 -4.62162537 -1.06652893 0 0 Z M17 4 C18 6 18 6 18 6 Z M3 6 C4 9 4 9 4 9 Z M18 6 C19 9 19 9 19 9 Z M4 9 C5 11 5 11 5 11 Z M19 9 C20 11 20 11 20 11 Z M20 11 C21 14 21 14 21 14 Z M5 12 C6 14 6 14 6 14 Z M6 14 C7 17 7 17 7 17 Z " fill="#B016A0" transform="translate(46,29)"/>
<path d="M0 0 C3.96 0 7.92 0 12 0 C13.38013585 2.48847251 14.72809945 4.98713887 16.0625 7.5 C16.64741211 8.54414062 16.64741211 8.54414062 17.24414062 9.609375 C20.03471875 14.94357743 20.37276233 18.11673289 19 24 C18.02734375 26.53125 18.02734375 26.53125 16.9375 28.5 C16.57527344 29.1703125 16.21304688 29.840625 15.83984375 30.53125 C15.56269531 31.0159375 15.28554687 31.500625 15 32 C12.671875 31.87109375 12.671875 31.87109375 10 31 C8.453125 28.34765625 8.453125 28.34765625 7.25 25.0625 C6.84265625 23.98097656 6.4353125 22.89945313 6.015625 21.78515625 C5.68046875 20.86605469 5.3453125 19.94695313 5 19 C4.67 18.34 4.34 17.68 4 17 C3.90203125 17.61488281 3.8040625 18.22976562 3.703125 18.86328125 C2.48879837 25.42692605 2.48879837 25.42692605 0.1875 28.125 C-2.76099581 29.30439832 -4.03738289 29.1513704 -7 28 C-8.2571572 25.59804022 -9.08685829 23.61133007 -9.875 21.0625 C-10.09929688 20.41603516 -10.32359375 19.76957031 -10.5546875 19.10351562 C-12.15052343 14.30104687 -12.15052343 14.30104687 -11 12 C-10.01 14.97 -9.02 17.94 -8 21 C-7.01 21 -6.02 21 -5 21 C-5 22.65 -5 24.3 -5 26 C-1.61285619 23.87578612 -1.61285619 23.87578612 1 21 C1.34252538 17.84659175 0.94963317 15.02102053 0 12 C-0.66 11.34 -1.32 10.68 -2 10 C-2.4140625 7.8359375 -2.4140625 7.8359375 -2.625 5.375 C-2.69976562 4.55773438 -2.77453125 3.74046875 -2.8515625 2.8984375 C-2.92503906 1.95871094 -2.92503906 1.95871094 -3 1 C-2.34 1.33 -1.68 1.66 -1 2 C-0.67 1.34 -0.34 0.68 0 0 Z M-1 4 C0 6 0 6 0 6 Z M0 6 C1 9 1 9 1 9 Z M1 9 C2 11 2 11 2 11 Z M2 11 C3 14 3 14 3 14 Z " fill="#820CAA" transform="translate(64,29)"/>
<path d="M0 0 C3.63 0.33 7.26 0.66 11 1 C14.7896685 7.51822983 14.31381362 13.69005958 13 21 C12.34 21.99 11.68 22.98 11 24 C10.34 24 9.68 24 9 24 C9 23.34 9 22.68 9 22 C8.34 21.67 7.68 21.34 7 21 C6.13037109 19.28173828 6.13037109 19.28173828 5.2734375 17.0703125 C4.9640625 16.27496094 4.6546875 15.47960937 4.3359375 14.66015625 C4.01882812 13.82355469 3.70171875 12.98695312 3.375 12.125 C2.88773438 10.88169922 2.88773438 10.88169922 2.390625 9.61328125 C0 3.39564732 0 3.39564732 0 0 Z " fill="#AE13A2" transform="translate(33,29)"/>
<path d="M0 0 C3.96 0 7.92 0 12 0 C14.17833617 6.3988625 15.57996866 12.77423066 12.5 19.0625 C12.005 19.701875 11.51 20.34125 11 21 C9 19.75 9 19.75 7 18 C7 16.68 7 15.36 7 14 C6.01 13.67 5.02 13.34 4 13 C2.83203125 10.8203125 2.83203125 10.8203125 1.8125 8.125 C1.29623047 6.79855469 1.29623047 6.79855469 0.76953125 5.4453125 C0 3 0 3 0 0 Z " fill="#C410AC" transform="translate(64,29)"/>
<path d="M0 0 C3.375 0.3125 3.375 0.3125 7 1 C7.66 1.99 8.32 2.98 9 4 C9.33 3.01 9.66 2.02 10 1 C10.33 1 10.66 1 11 1 C12.60506696 5.91551758 13.09317831 9.78201468 13 15 C13.28875 16.11375 13.5775 17.2275 13.875 18.375 C14.06099616 23.7688885 11.23178405 26.8689369 8 31 C4.83884224 29.63016497 4.0072908 29.0109362 2 26 C2 24.68 2 23.36 2 22 C2.66 22.33 3.32 22.66 4 23 C3.67 23.66 3.34 24.32 3 25 C5.43588101 23.14190209 5.97331278 22.13415255 6.58203125 19.07421875 C6.69611328 17.39779297 6.69611328 17.39779297 6.8125 15.6875 C6.90144531 14.57761719 6.99039063 13.46773437 7.08203125 12.32421875 C6.9958481 8.83174917 6.26834718 6.23697872 5 3 C3.35 2.67 1.7 2.34 0 2 C0 1.34 0 0.68 0 0 Z M10 7 C11 10 11 10 11 10 Z M11 10 C12 12 12 12 12 12 Z " fill="#7E0CAA" transform="translate(39,28)"/>
<path d="M0 0 C3.19717518 1.04746853 3.94005856 1.88427758 5.51953125 4.93359375 C5.94621094 6.08988281 6.37289062 7.24617188 6.8125 8.4375 C7.25207031 9.59121094 7.69164063 10.74492188 8.14453125 11.93359375 C9 15 9 15 8 18 C7.67 17.34 7.34 16.68 7 16 C6.90203125 16.61488281 6.8040625 17.22976562 6.703125 17.86328125 C5.48879837 24.42692605 5.48879837 24.42692605 3.1875 27.125 C0.23900419 28.30439832 -1.03738289 28.1513704 -4 27 C-5.2571572 24.59804022 -6.08685829 22.61133007 -6.875 20.0625 C-7.09929688 19.41603516 -7.32359375 18.76957031 -7.5546875 18.10351562 C-9.15052343 13.30104687 -9.15052343 13.30104687 -8 11 C-7.01 13.97 -6.02 16.94 -5 20 C-4.01 20 -3.02 20 -2 20 C-2 21.65 -2 23.3 -2 25 C1.38714381 22.87578612 1.38714381 22.87578612 4 20 C4.34252538 16.84659175 3.94963317 14.02102053 3 11 C2.34 10.34 1.68 9.68 1 9 C0.5859375 6.8359375 0.5859375 6.8359375 0.375 4.375 C0.30023438 3.55773438 0.22546875 2.74046875 0.1484375 1.8984375 C0.07496094 0.95871094 0.07496094 0.95871094 0 0 Z M2 3 C3 5 3 5 3 5 Z M3 5 C4 8 4 8 4 8 Z M4 8 C5 10 5 10 5 10 Z M5 10 C6 13 6 13 6 13 Z " fill="#3A0344" transform="translate(61,30)"/>
<path d="M0 0 C3 2 3 2 3.51171875 4.1640625 C3.59873047 5.38222656 3.59873047 5.38222656 3.6875 6.625 C3.78611328 7.85089844 3.78611328 7.85089844 3.88671875 9.1015625 C3.92410156 9.72804688 3.96148437 10.35453125 4 11 C3.360625 11.268125 2.72125 11.53625 2.0625 11.8125 C-0.33131686 12.88667752 -0.33131686 12.88667752 -1 16 C-1.66 16 -2.32 16 -3 16 C-3 14.35 -3 12.7 -3 11 C-3.66 10.67 -4.32 10.34 -5 10 C-4.55090939 8.51800098 -4.09043436 7.03944764 -3.625 5.5625 C-3.36976562 4.73878906 -3.11453125 3.91507813 -2.8515625 3.06640625 C-2 1 -2 1 0 0 Z " fill="#9E0CAF" transform="translate(62,39)"/>
<path d="M0 0 C6.15234375 -0.09765625 6.15234375 -0.09765625 8 0 C9 1 9 1 9.3125 3.1875 C8.89760294 6.9215735 7.21306849 9.02618922 5 12 C4.67 11.01 4.34 10.02 4 9 C2.9790625 8.3503125 2.9790625 8.3503125 1.9375 7.6875 C0 6 0 6 -0.25 2.8125 C-0.1675 1.884375 -0.085 0.95625 0 0 Z " fill="#C910A9" transform="translate(51,30)"/>
<path d="M0 0 C0.33 0 0.66 0 1 0 C2.60506696 4.91551758 3.09317831 8.78201468 3 14 C3.2475 15.155 3.495 16.31 3.75 17.5 C4.08969699 22.25575787 2.62590326 24.10093152 0 28 C-0.93423645 24.98968256 -1.04449911 24.13349732 0 21 C0.2239228 17.11867148 0.05333406 14.17882598 -1.0625 10.4375 C-2.06000494 6.77998189 -1.95148111 4.63292787 -1 1 C-0.67 0.67 -0.34 0.34 0 0 Z M0 6 C1 9 1 9 1 9 Z M1 9 C2 11 2 11 2 11 Z " fill="#3E0546" transform="translate(49,29)"/>
<path d="M0 0 C2.7601593 2.38377394 4.05777504 4.46665639 5 8 C4.79591991 14.22444277 3.07070328 18.62983984 0 24 C-2.25 24.0625 -2.25 24.0625 -5 23 C-6.8106336 20.17158789 -8.12399098 17.24237104 -9 14 C-8.67 13.01 -8.34 12.02 -8 11 C-6.68 14.3 -5.36 17.6 -4 21 C-3.01 21 -2.02 21 -1 21 C2.67162311 13.50376949 2.57003044 7.87071822 0 0 Z " fill="#2D0246" transform="translate(79,37)"/>
<path d="M0 0 C5.41538462 -0.36923077 5.41538462 -0.36923077 8.375 1.5 C8.91125 1.995 9.4475 2.49 10 3 C9.01 3.495 9.01 3.495 8 4 C7.53476937 5.89533342 7.53476937 5.89533342 7.375 8.0625 C7.189375 10.0115625 7.189375 10.0115625 7 12 C5.5 10.6875 5.5 10.6875 4 9 C4 8.01 4 7.02 4 6 C3.01 6 2.02 6 1 6 C0.67 4.02 0.34 2.04 0 0 Z " fill="#C8189C" transform="translate(33,29)"/>
<path d="M0 0 C2 1 2 1 2.6328125 2.84765625 C2.79523437 3.57855469 2.95765625 4.30945312 3.125 5.0625 C3.29257812 5.79597656 3.46015625 6.52945313 3.6328125 7.28515625 C3.75398438 7.85105469 3.87515625 8.41695312 4 9 C4.99 9 5.98 9 7 9 C7 10.65 7 12.3 7 14 C8.65 12.68 10.3 11.36 12 10 C12.33 10.66 12.66 11.32 13 12 C11.5625 14.625 11.5625 14.625 10 17 C7.67578125 16.93359375 7.67578125 16.93359375 5 16 C3.7712301 13.6001062 2.95563956 11.60365677 2.1875 9.0625 C1.97158203 8.41603516 1.75566406 7.76957031 1.53320312 7.10351562 C0 2.41629464 0 2.41629464 0 0 Z " fill="#5C0A7C" transform="translate(52,41)"/>
<path d="M0 0 C1.65 0.33 3.3 0.66 5 1 C5.50130606 6.26371362 4.31168629 8.9090934 1 13 C0.34 13 -0.32 13 -1 13 C-0.9278125 12.31292969 -0.855625 11.62585937 -0.78125 10.91796875 C-0.6884375 10.01691406 -0.595625 9.11585937 -0.5 8.1875 C-0.4071875 7.29417969 -0.314375 6.40085937 -0.21875 5.48046875 C0.04392401 2.91694901 0.04392401 2.91694901 0 0 Z " fill="#C510AA" transform="translate(40,30)"/>
<path d="M0 0 C3.96 0 7.92 0 12 0 C12.33 0.99 12.66 1.98 13 3 C12.34 3 11.68 3 11 3 C11 2.34 11 1.68 11 1 C10.01 1.495 10.01 1.495 9 2 C6.6670134 2.04022391 4.33293334 2.04320247 2 2 C2.33 3.65 2.66 5.3 3 7 C3.66 7 4.32 7 5 7 C5.66 9.31 6.32 11.62 7 14 C4 13 4 13 2.83203125 10.8203125 C2.49558594 9.93085937 2.15914063 9.04140625 1.8125 8.125 C1.29623047 6.79855469 1.29623047 6.79855469 0.76953125 5.4453125 C0 3 0 3 0 0 Z " fill="#B51F93" transform="translate(64,29)"/>
<path d="M0 0 C2.31 0.33 4.62 0.66 7 1 C8.8417395 6.64800112 9.54775239 12.08507728 10 18 C9.34 18 8.68 18 8 18 C7.67 18.66 7.34 19.32 7 20 C7.02320313 19.27554688 7.04640625 18.55109375 7.0703125 17.8046875 C7.17018794 12.45421756 7.16455748 8.00553918 5 3 C3.35 2.67 1.7 2.34 0 2 C0 1.34 0 0.68 0 0 Z " fill="#7E1086" transform="translate(39,28)"/>
<path d="M0 0 C0.66 0 1.32 0 2 0 C2.433125 1.11375 2.433125 1.11375 2.875 2.25 C3.90202913 4.92236812 3.90202913 4.92236812 5.125 7 C6.19376273 9.44288623 6.1465693 11.36175261 6 14 C6.45375 13.505 6.9075 13.01 7.375 12.5 C9 11 9 11 11 11 C10.34 12.65 9.68 14.3 9 16 C7.171875 15.90234375 7.171875 15.90234375 5 15 C3.515625 12.12890625 3.515625 12.12890625 2.25 8.5625 C1.82203125 7.38816406 1.3940625 6.21382812 0.953125 5.00390625 C0 2 0 2 0 0 Z " fill="#7312A1" transform="translate(69,43)"/>
<path d="M0 0 C0.33 0 0.66 0 1 0 C0.88590318 2.10478604 0.75834639 4.20884577 0.625 6.3125 C0.55539063 7.48425781 0.48578125 8.65601563 0.4140625 9.86328125 C0 13 0 13 -2 16 C-2.66 16 -3.32 16 -4 16 C-4.33 14.35 -4.66 12.7 -5 11 C-4.01 10.67 -3.02 10.34 -2 10 C-1.34 6.7 -0.68 3.4 0 0 Z " fill="#A10AB4" transform="translate(46,37)"/>
<path d="M0 0 C0.33 0 0.66 0 1 0 C1.32374517 5.50366792 1.53286034 9.43672206 -2 14 C-3.32 12.68 -4.64 11.36 -6 10 C-5.38125 9.46375 -4.7625 8.9275 -4.125 8.375 C-1.7217098 5.68896977 -0.93977847 3.44585438 0 0 Z " fill="#A50DAF" transform="translate(77,36)"/>
<path d="M0 0 C0.66 0.33 1.32 0.66 2 1 C2.4140625 3.06640625 2.4140625 3.06640625 2.625 5.5625 C2.69976562 6.38878906 2.77453125 7.21507812 2.8515625 8.06640625 C2.92503906 9.02353516 2.92503906 9.02353516 3 10 C2.01 10.66 1.02 11.32 0 12 C-0.33 11.67 -0.66 11.34 -1 11 C-0.91015699 9.14227838 -0.75388139 7.28752015 -0.5625 5.4375 C-0.46066406 4.42558594 -0.35882813 3.41367187 -0.25390625 2.37109375 C-0.17011719 1.58863281 -0.08632813 0.80617187 0 0 Z " fill="#7C0CA8" transform="translate(63,40)"/>
<path d="M0 0 C2.31 0 4.62 0 7 0 C6.67 1.65 6.34 3.3 6 5 C5.34 5 4.68 5 4 5 C4 6.65 4 8.3 4 10 C3.67 10 3.34 10 3 10 C3 8.35 3 6.7 3 5 C2.34 5 1.68 5 1 5 C0.67 3.35 0.34 1.7 0 0 Z " fill="#DE11A6" transform="translate(66,31)"/>
<path d="M0 0 C0.33 0 0.66 0 1 0 C1.41733821 6.05140408 1.10415132 9.17158669 -3 14 C-3.66 14 -4.32 14 -5 14 C-5 12.35 -5 10.7 -5 9 C-3.35 8.34 -1.7 7.68 0 7 C0 4.69 0 2.38 0 0 Z " fill="#B70EAA" transform="translate(76,32)"/>
<path d="M0 0 C0.33 0.66 0.66 1.32 1 2 C1.66 2 2.32 2 3 2 C2.54663921 6.87362847 1.2910841 9.39042389 -2 13 C-1.39174965 8.65535464 -0.73832608 4.32448133 0 0 Z " fill="#4A0971" transform="translate(50,44)"/>
<path d="M0 0 C2.31 0.33 4.62 0.66 7 1 C6.67 1.66 6.34 2.32 6 3 C5.34 3 4.68 3 4 3 C3.67 4.65 3.34 6.3 3 8 C2.01 7.34 1.02 6.68 0 6 C-0.1875 2.875 -0.1875 2.875 0 0 Z " fill="#DD14A6" transform="translate(51,30)"/>
<path d="M0 0 C0.33 0.99 0.66 1.98 1 3 C1.99 3.33 2.98 3.66 4 4 C5 11.625 5 11.625 5 15 C1.50741507 11.50741507 0.07908935 7.4499715 -0.1875 2.5625 C-0.125625 1.716875 -0.06375 0.87125 0 0 Z " fill="#A91898" transform="translate(52,35)"/>
<path d="M0 0 C1.18005182 3.68766192 1.20993972 7.15110517 1 11 C0.01 12.485 0.01 12.485 -1 14 C-1.66 13.67 -2.32 13.34 -3 13 C-2.68991116 11.39536551 -2.37683713 9.79130769 -2.0625 8.1875 C-1.88847656 7.29417969 -1.71445312 6.40085937 -1.53515625 5.48046875 C-1 3 -1 3 0 0 Z " fill="#8F0AB4" transform="translate(62,41)"/>
<path d="M0 0 C0.66 0 1.32 0 2 0 C3.4216319 3.3171411 4.39009109 6.44219804 5 10 C1.55783328 7.3401439 1.00495326 4.09711714 0 0 Z " fill="#941597" transform="translate(69,43)"/>
<path d="M0 0 C1.32 0 2.64 0 4 0 C3.67 1.98 3.34 3.96 3 6 C2.67 5.34 2.34 4.68 2 4 C1.34 4 0.68 4 0 4 C0 2.68 0 1.36 0 0 Z " fill="#E612A6" transform="translate(35,31)"/>
</svg>
